<svg version="1.1" xmlns="http://www.w3.org/2000/svg" xmlns:xlink="http://www.w3.org/1999/xlink" width="600" height="600"><defs><clipPath id="WQScTOsRmgew"><path fill="none" stroke="none" d=" M 50 32 L 570 32 L 570 550 L 50 550 L 50 32 Z"/></clipPath><clipPath id="UzWhQaWZsthh"><path fill="none" stroke="none" d=" M 50 32 L 570 32 L 570 550 L 50 550 L 50 32 Z"/></clipPath><clipPath id="aGNLQKCPtBnT"><path fill="none" stroke="none" d=" M 50 32 L 570 32 L 570 550 L 50 550 L 50 32 Z"/></clipPath></defs><g transform="scale(1,1) translate(0.5,0.5)"><rect fill="#ffffff" stroke="none" x="0" y="0" width="600" height="600"/><rect fill="#FFFFFF" stroke="none" x="50" y="32" width="520" height="518"/><rect fill="#ffffff" stroke="none" x="50" y="32" width="520" height="518"/><g><rect fill="none" stroke="#e5e5e5" x="50" y="32" width="520" height="518" stroke-linejoin="bevel" stroke-miterlimit="10"/></g><g clip-path="url(#WQScTOsRmgew)"><g><g><path fill="none" stroke="#e5e5e5" paint-order="fill stroke markers" d=" M 72 550 L 72 32" stroke-linejoin="bevel" stroke-miterlimit="10"/><path fill="none" stroke="#e5e5e5" paint-order="fill stroke markers" d=" M 159 550 L 159 32" stroke-linejoin="bevel" stroke-miterlimit="10"/><path fill="none" stroke="#e5e5e5" paint-order="fill stroke markers" d=" M 245 550 L 245 32" stroke-linejoin="bevel" stroke-miterlimit="10"/><path fill="none" stroke="#e5e5e5" paint-order="fill stroke markers" d=" M 331 550 L 331 32" stroke-linejoin="bevel" stroke-miterlimit="10"/><path fill="none" stroke="#e5e5e5" paint-order="fill stroke markers" d=" M 417 550 L 417 32" stroke-linejoin="bevel" stroke-miterlimit="10"/><path fill="none" stroke="#e5e5e5" paint-order="fill stroke markers" d=" M 504 550 L 504 32" stroke-linejoin="bevel" stroke-miterlimit="10"/></g></g></g><g clip-path="url(#UzWhQaWZsthh)"><g><g><path fill="none" stroke="#e5e5e5" paint-order="fill stroke markers" d=" M 50 526 L 570 526" stroke-linejoin="bevel" stroke-miterlimit="10"/><path fill="none" stroke="#e5e5e5" paint-order="fill stroke markers" d=" M 50 461 L 570 461" stroke-linejoin="bevel" stroke-miterlimit="10"/><path fill="none" stroke="#e5e5e5" paint-order="fill stroke markers" d=" M 50 396 L 570 396" stroke-linejoin="bevel" stroke-miterlimit="10"/><path fill="none" stroke="#e5e5e5" paint-order="fill stroke markers" d=" M 50 330 L 570 330" stroke-linejoin="bevel" stroke-miterlimit="10"/><path fill="none" stroke="#e5e5e5" paint-order="fill stroke markers" d=" M 50 265 L 570 265" stroke-linejoin="bevel" stroke-miterlimit="10"/><path fill="none" stroke="#e5e5e5" paint-order="fill stroke markers" d=" M 50 199 L 570 199" stroke-linejoin="bevel" stroke-miterlimit="10"/><path fill="none" stroke="#e5e5e5" paint-order="fill stroke markers" d=" M 50 134 L 570 134" stroke-linejoin="bevel" stroke-miterlimit="10"/><path fill="none" stroke="#e5e5e5" paint-order="fill stroke markers" d=" M 50 69 L 570 69" stroke-linejoin="bevel" stroke-miterlimit="10"/></g></g></g><g clip-path="url(#aGNLQKCPtBnT)"><g><g><path fill="none" stroke="none"/><path fill="mediumslateblue" stroke="none" paint-order="stroke fill markers" d=" M 73.63636363636365 55.545454545454504 L 97.2727272727273 55.545454545454504 L 97.2727272727273 526.4545454545455 L 73.63636363636365 526.4545454545455 L 73.63636363636365 55.545454545454504 Z" fill-opacity="0.7"/><path fill="none" stroke="black" paint-order="fill stroke markers" d=" M 73.63636363636365 55.545454545454504 L 97.2727272727273 55.545454545454504 L 97.2727272727273 526.4545454545455 L 73.63636363636365 526.4545454545455 L 73.63636363636365 55.545454545454504 Z" stroke-linejoin="bevel" stroke-miterlimit="10"/><path fill="mediumslateblue" stroke="none" paint-order="stroke fill markers" d=" M 97.2727272727273 147.1111111111111 L 120.90909090909093 147.1111111111111 L 120.90909090909093 526.4545454545455 L 97.2727272727273 526.4545454545455 L 97.2727272727273 147.1111111111111 Z" fill-opacity="0.7"/><path fill="none" stroke="black" paint-order="fill stroke markers" d=" M 97.2727272727273 147.1111111111111 L 120.90909090909093 147.1111111111111 L 120.90909090909093 526.4545454545455 L 97.2727272727273 526.4545454545455 L 97.2727272727273 147.1111111111111 Z" stroke-linejoin="bevel" stroke-miterlimit="10"/><path fill="mediumslateblue" stroke="none" paint-order="stroke fill markers" d=" M 120.90909090909093 291 L 144.54545454545456 291 L 144.54545454545456 526.4545454545455 L 120.90909090909093 526.4545454545455 L 120.90909090909093 291 Z" fill-opacity="0.7"/><path fill="none" stroke="black" paint-order="fill stroke markers" d=" M 120.90909090909093 291 L 144.54545454545456 291 L 144.54545454545456 526.4545454545455 L 120.90909090909093 526.4545454545455 L 120.90909090909093 291 Z" stroke-linejoin="bevel" stroke-miterlimit="10"/><path fill="mediumslateblue" stroke="none" paint-order="stroke fill markers" d=" M 144.54545454545456 421.80808080808083 L 168.1818181818182 421.80808080808083 L 168.1818181818182 526.4545454545455 L 144.54545454545456 526.4545454545455 L 144.54545454545456 421.80808080808083 Z" fill-opacity="0.7"/><path fill="none" stroke="black" paint-order="fill stroke markers" d=" M 144.54545454545456 421.80808080808083 L 168.1818181818182 421.80808080808083 L 168.1818181818182 526.4545454545455 L 144.54545454545456 526.4545454545455 L 144.54545454545456 421.80808080808083 Z" stroke-linejoin="bevel" stroke-miterlimit="10"/><path fill="mediumslateblue" stroke="none" paint-order="stroke fill markers" d=" M 168.1818181818182 500.29292929292933 L 191.81818181818184 500.29292929292933 L 191.81818181818184 526.4545454545455 L 168.1818181818182 526.4545454545455 L 168.1818181818182 500.29292929292933 Z" fill-opacity="0.7"/><path fill="none" stroke="black" paint-order="fill stroke markers" d=" M 168.1818181818182 500.29292929292933 L 191.81818181818184 500.29292929292933 L 191.81818181818184 526.4545454545455 L 168.1818181818182 526.4545454545455 L 168.1818181818182 500.29292929292933 Z" stroke-linejoin="bevel" stroke-miterlimit="10"/><path fill="mediumslateblue" stroke="none" paint-order="stroke fill markers" d=" M 191.81818181818184 487.21212121212125 L 215.45454545454547 487.21212121212125 L 215.45454545454547 526.4545454545455 L 191.81818181818184 526.4545454545455 L 191.81818181818184 487.21212121212125 Z" fill-opacity="0.7"/><path fill="none" stroke="black" paint-order="fill stroke markers" d=" M 191.81818181818184 487.21212121212125 L 215.45454545454547 487.21212121212125 L 215.45454545454547 526.4545454545455 L 191.81818181818184 526.4545454545455 L 191.81818181818184 487.21212121212125 Z" stroke-linejoin="bevel" stroke-miterlimit="10"/><path fill="mediumslateblue" stroke="none" paint-order="stroke fill markers" d=" M 215.45454545454547 500.29292929292933 L 239.0909090909091 500.29292929292933 L 239.0909090909091 526.4545454545455 L 215.45454545454547 526.4545454545455 L 215.45454545454547 500.29292929292933 Z" fill-opacity="0.7"/><path fill="none" stroke="black" paint-order="fill stroke markers" d=" M 215.45454545454547 500.29292929292933 L 239.0909090909091 500.29292929292933 L 239.0909090909091 526.4545454545455 L 215.45454545454547 526.4545454545455 L 215.45454545454547 500.29292929292933 Z" stroke-linejoin="bevel" stroke-miterlimit="10"/><path fill="mediumslateblue" stroke="none" paint-order="stroke fill markers" d=" M 239.0909090909091 526.4545454545455 L 262.72727272727275 526.4545454545455 L 262.72727272727275 526.4545454545455 L 239.0909090909091 526.4545454545455 L 239.0909090909091 526.4545454545455 Z" fill-opacity="0.7"/><path fill="none" stroke="black" paint-order="fill stroke markers" d=" M 239.0909090909091 526.4545454545455 L 262.72727272727275 526.4545454545455 L 262.72727272727275 526.4545454545455 L 239.0909090909091 526.4545454545455 L 239.0909090909091 526.4545454545455 Z" stroke-linejoin="bevel" stroke-miterlimit="10"/><path fill="mediumslateblue" stroke="none" paint-order="stroke fill markers" d=" M 262.72727272727275 526.4545454545455 L 286.3636363636364 526.4545454545455 L 286.3636363636364 526.4545454545455 L 262.72727272727275 526.4545454545455 L 262.72727272727275 526.4545454545455 Z" fill-opacity="0.7"/><path fill="none" stroke="black" paint-order="fill stroke markers" d=" M 262.72727272727275 526.4545454545455 L 286.3636363636364 526.4545454545455 L 286.3636363636364 526.4545454545455 L 262.72727272727275 526.4545454545455 L 262.72727272727275 526.4545454545455 Z" stroke-linejoin="bevel" stroke-miterlimit="10"/><path fill="mediumslateblue" stroke="none" paint-order="stroke fill markers" d=" M 286.3636363636364 526.4545454545455 L 310 526.4545454545455 L 310 526.4545454545455 L 286.3636363636364 526.4545454545455 L 286.3636363636364 526.4545454545455 Z" fill-opacity="0.7"/><path fill="none" stroke="black" paint-order="fill stroke markers" d=" M 286.3636363636364 526.4545454545455 L 310 526.4545454545455 L 310 526.4545454545455 L 286.3636363636364 526.4545454545455 L 286.3636363636364 526.4545454545455 Z" stroke-linejoin="bevel" stroke-miterlimit="10"/><path fill="mediumslateblue" stroke="none" paint-order="stroke fill markers" d=" M 310 526.4545454545455 L 333.6363636363636 526.4545454545455 L 333.6363636363636 526.4545454545455 L 310 526.4545454545455 L 310 526.4545454545455 Z" fill-opacity="0.7"/><path fill="none" stroke="black" paint-order="fill stroke markers" d=" M 310 526.4545454545455 L 333.6363636363636 526.4545454545455 L 333.6363636363636 526.4545454545455 L 310 526.4545454545455 L 310 526.4545454545455 Z" stroke-linejoin="bevel" stroke-miterlimit="10"/><path fill="mediumslateblue" stroke="none" paint-order="stroke fill markers" d=" M 333.6363636363636 513.3737373737374 L 357.27272727272725 513.3737373737374 L 357.27272727272725 526.4545454545455 L 333.6363636363636 526.4545454545455 L 333.6363636363636 513.3737373737374 Z" fill-opacity="0.7"/><path fill="none" stroke="black" paint-order="fill stroke markers" d=" M 333.6363636363636 513.3737373737374 L 357.27272727272725 513.3737373737374 L 357.27272727272725 526.4545454545455 L 333.6363636363636 526.4545454545455 L 333.6363636363636 513.3737373737374 Z" stroke-linejoin="bevel" stroke-miterlimit="10"/><path fill="mediumslateblue" stroke="none" paint-order="stroke fill markers" d=" M 357.27272727272725 526.4545454545455 L 380.90909090909093 526.4545454545455 L 380.90909090909093 526.4545454545455 L 357.27272727272725 526.4545454545455 L 357.27272727272725 526.4545454545455 Z" fill-opacity="0.7"/><path fill="none" stroke="black" paint-order="fill stroke markers" d=" M 357.27272727272725 526.4545454545455 L 380.90909090909093 526.4545454545455 L 380.90909090909093 526.4545454545455 L 357.27272727272725 526.4545454545455 L 357.27272727272725 526.4545454545455 Z" stroke-linejoin="bevel" stroke-miterlimit="10"/><path fill="mediumslateblue" stroke="none" paint-order="stroke fill markers" d=" M 380.90909090909093 526.4545454545455 L 404.54545454545456 526.4545454545455 L 404.54545454545456 526.4545454545455 L 380.90909090909093 526.4545454545455 L 380.90909090909093 526.4545454545455 Z" fill-opacity="0.7"/><path fill="none" stroke="black" paint-order="fill stroke markers" d=" M 380.90909090909093 526.4545454545455 L 404.54545454545456 526.4545454545455 L 404.54545454545456 526.4545454545455 L 380.90909090909093 526.4545454545455 L 380.90909090909093 526.4545454545455 Z" stroke-linejoin="bevel" stroke-miterlimit="10"/><path fill="mediumslateblue" stroke="none" paint-order="stroke fill markers" d=" M 404.54545454545456 526.4545454545455 L 428.1818181818182 526.4545454545455 L 428.1818181818182 526.4545454545455 L 404.54545454545456 526.4545454545455 L 404.54545454545456 526.4545454545455 Z" fill-opacity="0.7"/><path fill="none" stroke="black" paint-order="fill stroke markers" d=" M 404.54545454545456 526.4545454545455 L 428.1818181818182 526.4545454545455 L 428.1818181818182 526.4545454545455 L 404.54545454545456 526.4545454545455 L 404.54545454545456 526.4545454545455 Z" stroke-linejoin="bevel" stroke-miterlimit="10"/><path fill="mediumslateblue" stroke="none" paint-order="stroke fill markers" d=" M 428.1818181818182 526.4545454545455 L 451.8181818181818 526.4545454545455 L 451.8181818181818 526.4545454545455 L 428.1818181818182 526.4545454545455 L 428.1818181818182 526.4545454545455 Z" fill-opacity="0.7"/><path fill="none" stroke="black" paint-order="fill stroke markers" d=" M 428.1818181818182 526.4545454545455 L 451.8181818181818 526.4545454545455 L 451.8181818181818 526.4545454545455 L 428.1818181818182 526.4545454545455 L 428.1818181818182 526.4545454545455 Z" stroke-linejoin="bevel" stroke-miterlimit="10"/><path fill="mediumslateblue" stroke="none" paint-order="stroke fill markers" d=" M 451.8181818181818 526.4545454545455 L 475.45454545454544 526.4545454545455 L 475.45454545454544 526.4545454545455 L 451.8181818181818 526.4545454545455 L 451.8181818181818 526.4545454545455 Z" fill-opacity="0.7"/><path fill="none" stroke="black" paint-order="fill stroke markers" d=" M 451.8181818181818 526.4545454545455 L 475.45454545454544 526.4545454545455 L 475.45454545454544 526.4545454545455 L 451.8181818181818 526.4545454545455 L 451.8181818181818 526.4545454545455 Z" stroke-linejoin="bevel" stroke-miterlimit="10"/><path fill="mediumslateblue" stroke="none" paint-order="stroke fill markers" d=" M 475.45454545454544 526.4545454545455 L 499.09090909090907 526.4545454545455 L 499.09090909090907 526.4545454545455 L 475.45454545454544 526.4545454545455 L 475.45454545454544 526.4545454545455 Z" fill-opacity="0.7"/><path fill="none" stroke="black" paint-order="fill stroke markers" d=" M 475.45454545454544 526.4545454545455 L 499.09090909090907 526.4545454545455 L 499.09090909090907 526.4545454545455 L 475.45454545454544 526.4545454545455 L 475.45454545454544 526.4545454545455 Z" stroke-linejoin="bevel" stroke-miterlimit="10"/><path fill="mediumslateblue" stroke="none" paint-order="stroke fill markers" d=" M 499.09090909090907 526.4545454545455 L 522.7272727272727 526.4545454545455 L 522.7272727272727 526.4545454545455 L 499.09090909090907 526.4545454545455 L 499.09090909090907 526.4545454545455 Z" fill-opacity="0.7"/><path fill="none" stroke="black" paint-order="fill stroke markers" d=" M 499.09090909090907 526.4545454545455 L 522.7272727272727 526.4545454545455 L 522.7272727272727 526.4545454545455 L 499.09090909090907 526.4545454545455 L 499.09090909090907 526.4545454545455 Z" stroke-linejoin="bevel" stroke-miterlimit="10"/><path fill="mediumslateblue" stroke="none" paint-order="stroke fill markers" d=" M 522.7272727272727 513.3737373737374 L 546.3636363636364 513.3737373737374 L 546.3636363636364 526.4545454545455 L 522.7272727272727 526.4545454545455 L 522.7272727272727 513.3737373737374 Z" fill-opacity="0.7"/><path fill="none" stroke="black" paint-order="fill stroke markers" d=" M 522.7272727272727 513.3737373737374 L 546.3636363636364 513.3737373737374 L 546.3636363636364 526.4545454545455 L 522.7272727272727 526.4545454545455 L 522.7272727272727 513.3737373737374 Z" stroke-linejoin="bevel" stroke-miterlimit="10"/></g></g></g><g><g fill="#444444"><path fill="none" stroke="black" paint-order="fill stroke markers" d=" M 50 550 L 570 550" stroke-linejoin="bevel" stroke-miterlimit="10"/><path fill="none" stroke="black" paint-order="fill stroke markers" d=" M 72 556 L 72 548" stroke-linejoin="bevel" stroke-miterlimit="10"/><path fill="none" stroke="black" paint-order="fill stroke markers" d=" M 159 556 L 159 548" stroke-linejoin="bevel" stroke-miterlimit="10"/><path fill="none" stroke="black" paint-order="fill stroke markers" d=" M 245 556 L 245 548" stroke-linejoin="bevel" stroke-miterlimit="10"/><path fill="none" stroke="black" paint-order="fill stroke markers" d=" M 331 556 L 331 548" stroke-linejoin="bevel" stroke-miterlimit="10"/><path fill="none" stroke="black" paint-order="fill stroke markers" d=" M 417 556 L 417 548" stroke-linejoin="bevel" stroke-miterlimit="10"/><path fill="none" stroke="black" paint-order="fill stroke markers" d=" M 504 556 L 504 548" stroke-linejoin="bevel" stroke-miterlimit="10"/><path fill="none" stroke="black" paint-order="fill stroke markers" d=" M 55 554 L 55 550" stroke-linejoin="bevel" stroke-miterlimit="10"/><path fill="none" stroke="black" paint-order="fill stroke markers" d=" M 72 554 L 72 550" stroke-linejoin="bevel" stroke-miterlimit="10"/><path fill="none" stroke="black" paint-order="fill stroke markers" d=" M 90 554 L 90 550" stroke-linejoin="bevel" stroke-miterlimit="10"/><path fill="none" stroke="black" paint-order="fill stroke markers" d=" M 107 554 L 107 550" stroke-linejoin="bevel" stroke-miterlimit="10"/><path fill="none" stroke="black" paint-order="fill stroke markers" d=" M 124 554 L 124 550" stroke-linejoin="bevel" stroke-miterlimit="10"/><path fill="none" stroke="black" paint-order="fill stroke markers" d=" M 141 554 L 141 550" stroke-linejoin="bevel" stroke-miterlimit="10"/><path fill="none" stroke="black" paint-order="fill stroke markers" d=" M 159 554 L 159 550" stroke-linejoin="bevel" stroke-miterlimit="10"/><path fill="none" stroke="black" paint-order="fill stroke markers" d=" M 176 554 L 176 550" stroke-linejoin="bevel" stroke-miterlimit="10"/><path fill="none" stroke="black" paint-order="fill stroke markers" d=" M 193 554 L 193 550" stroke-linejoin="bevel" stroke-miterlimit="10"/><path fill="none" stroke="black" paint-order="fill stroke markers" d=" M 210 554 L 210 550" stroke-linejoin="bevel" stroke-miterlimit="10"/><path fill="none" stroke="black" paint-order="fill stroke markers" d=" M 228 554 L 228 550" stroke-linejoin="bevel" stroke-miterlimit="10"/><path fill="none" stroke="black" paint-order="fill stroke markers" d=" M 245 554 L 245 550" stroke-linejoin="bevel" stroke-miterlimit="10"/><path fill="none" stroke="black" paint-order="fill stroke markers" d=" M 262 554 L 262 550" stroke-linejoin="bevel" stroke-miterlimit="10"/><path fill="none" stroke="black" paint-order="fill stroke markers" d=" M 279 554 L 279 550" stroke-linejoin="bevel" stroke-miterlimit="10"/><path fill="none" stroke="black" paint-order="fill stroke markers" d=" M 297 554 L 297 550" stroke-linejoin="bevel" stroke-miterlimit="10"/><path fill="none" stroke="black" paint-order="fill stroke markers" d=" M 314 554 L 314 550" stroke-linejoin="bevel" stroke-miterlimit="10"/><path fill="none" stroke="black" paint-order="fill stroke markers" d=" M 331 554 L 331 550" stroke-linejoin="bevel" stroke-miterlimit="10"/><path fill="none" stroke="black" paint-order="fill stroke markers" d=" M 348 554 L 348 550" stroke-linejoin="bevel" stroke-miterlimit="10"/><path fill="none" stroke="black" paint-order="fill stroke markers" d=" M 366 554 L 366 550" stroke-linejoin="bevel" stroke-miterlimit="10"/><path fill="none" stroke="black" paint-order="fill stroke markers" d=" M 383 554 L 383 550" stroke-linejoin="bevel" stroke-miterlimit="10"/><path fill="none" stroke="black" paint-order="fill stroke markers" d=" M 400 554 L 400 550" stroke-linejoin="bevel" stroke-miterlimit="10"/><path fill="none" stroke="black" paint-order="fill stroke markers" d=" M 417 554 L 417 550" stroke-linejoin="bevel" stroke-miterlimit="10"/><path fill="none" stroke="black" paint-order="fill stroke markers" d=" M 435 554 L 435 550" stroke-linejoin="bevel" stroke-miterlimit="10"/><path fill="none" stroke="black" paint-order="fill stroke markers" d=" M 452 554 L 452 550" stroke-linejoin="bevel" stroke-miterlimit="10"/><path fill="none" stroke="black" paint-order="fill stroke markers" d=" M 469 554 L 469 550" stroke-linejoin="bevel" stroke-miterlimit="10"/><path fill="none" stroke="black" paint-order="fill stroke markers" d=" M 486 554 L 486 550" stroke-linejoin="bevel" stroke-miterlimit="10"/><path fill="none" stroke="black" paint-order="fill stroke markers" d=" M 504 554 L 504 550" stroke-linejoin="bevel" stroke-miterlimit="10"/><path fill="none" stroke="black" paint-order="fill stroke markers" d=" M 521 554 L 521 550" stroke-linejoin="bevel" stroke-miterlimit="10"/><path fill="none" stroke="black" paint-order="fill stroke markers" d=" M 538 554 L 538 550" stroke-linejoin="bevel" stroke-miterlimit="10"/><path fill="" stroke="black" paint-order="fill stroke markers" d=" M 555 554 L 555 550" stroke-linejoin="bevel" stroke-miterlimit="10"/><g transform="translate(72,561) rotate(0,0,0)"><text fill="" stroke="none" font-family="helvetica" font-size="11px" font-style="normal" font-weight="normal" text-decoration="normal" x="0" y="0" text-anchor="middle" dominant-baseline="hanging">0</text><g transform="rotate(0,0,0) translate(-72,-561) translate(159,561)"><text fill="" stroke="none" font-family="helvetica" font-size="11px" font-style="normal" font-weight="normal" text-decoration="normal" x="0" y="0" text-anchor="middle" dominant-baseline="hanging">10000</text><g transform="rotate(0,0,0) translate(-159,-561) translate(245,561)"><text fill="" stroke="none" font-family="helvetica" font-size="11px" font-style="normal" font-weight="normal" text-decoration="normal" x="0" y="0" text-anchor="middle" dominant-baseline="hanging">20000</text><g transform="rotate(0,0,0) translate(-245,-561) translate(331,561)"><text fill="" stroke="none" font-family="helvetica" font-size="11px" font-style="normal" font-weight="normal" text-decoration="normal" x="0" y="0" text-anchor="middle" dominant-baseline="hanging">30000</text><g transform="rotate(0,0,0) translate(-331,-561) translate(417,561)"><text fill="" stroke="none" font-family="helvetica" font-size="11px" font-style="normal" font-weight="normal" text-decoration="normal" x="0" y="0" text-anchor="middle" dominant-baseline="hanging">40000</text><g transform="rotate(0,0,0) translate(-417,-561) translate(504,561)"><text fill="" stroke="none" font-family="helvetica" font-size="11px" font-style="normal" font-weight="normal" text-decoration="normal" x="0" y="0" text-anchor="middle" dominant-baseline="hanging">50000</text><g transform="rotate(0,0,0) translate(-504,-561) translate(310,581)"><text fill="" stroke="none" font-family="helvetica" font-size="13px" font-style="italic" font-weight="normal" text-decoration="normal" x="0" y="0" text-anchor="middle" dominant-baseline="hanging">Procedure length (# of characters)</text><g transform="rotate(0,0,0) translate(-310,-581)"/></g></g></g></g></g></g></g></g></g><g><g fill="#444444"><path fill="none" stroke="black" paint-order="fill stroke markers" d=" M 50 550 L 50 32" stroke-linejoin="bevel" stroke-miterlimit="10"/><path fill="none" stroke="black" paint-order="fill stroke markers" d=" M 44 526 L 52 526" stroke-linejoin="bevel" stroke-miterlimit="10"/><path fill="none" stroke="black" paint-order="fill stroke markers" d=" M 44 461 L 52 461" stroke-linejoin="bevel" stroke-miterlimit="10"/><path fill="none" stroke="black" paint-order="fill stroke markers" d=" M 44 396 L 52 396" stroke-linejoin="bevel" stroke-miterlimit="10"/><path fill="none" stroke="black" paint-order="fill stroke markers" d=" M 44 330 L 52 330" stroke-linejoin="bevel" stroke-miterlimit="10"/><path fill="none" stroke="black" paint-order="fill stroke markers" d=" M 44 265 L 52 265" stroke-linejoin="bevel" stroke-miterlimit="10"/><path fill="none" stroke="black" paint-order="fill stroke markers" d=" M 44 199 L 52 199" stroke-linejoin="bevel" stroke-miterlimit="10"/><path fill="none" stroke="black" paint-order="fill stroke markers" d=" M 44 134 L 52 134" stroke-linejoin="bevel" stroke-miterlimit="10"/><path fill="none" stroke="black" paint-order="fill stroke markers" d=" M 44 69 L 52 69" stroke-linejoin="bevel" stroke-miterlimit="10"/><path fill="none" stroke="black" paint-order="fill stroke markers" d=" M 46 540 L 50 540" stroke-linejoin="bevel" stroke-miterlimit="10"/><path fill="none" stroke="black" paint-order="fill stroke markers" d=" M 46 526 L 50 526" stroke-linejoin="bevel" stroke-miterlimit="10"/><path fill="none" stroke="black" paint-order="fill stroke markers" d=" M 46 513 L 50 513" stroke-linejoin="bevel" stroke-miterlimit="10"/><path fill="none" stroke="black" paint-order="fill stroke markers" d=" M 46 500 L 50 500" stroke-linejoin="bevel" stroke-miterlimit="10"/><path fill="none" stroke="black" paint-order="fill stroke markers" d=" M 46 487 L 50 487" stroke-linejoin="bevel" stroke-miterlimit="10"/><path fill="none" stroke="black" paint-order="fill stroke markers" d=" M 46 474 L 50 474" stroke-linejoin="bevel" stroke-miterlimit="10"/><path fill="none" stroke="black" paint-order="fill stroke markers" d=" M 46 461 L 50 461" stroke-linejoin="bevel" stroke-miterlimit="10"/><path fill="none" stroke="black" paint-order="fill stroke markers" d=" M 46 448 L 50 448" stroke-linejoin="bevel" stroke-miterlimit="10"/><path fill="none" stroke="black" paint-order="fill stroke markers" d=" M 46 435 L 50 435" stroke-linejoin="bevel" stroke-miterlimit="10"/><path fill="none" stroke="black" paint-order="fill stroke markers" d=" M 46 422 L 50 422" stroke-linejoin="bevel" stroke-miterlimit="10"/><path fill="none" stroke="black" paint-order="fill stroke markers" d=" M 46 409 L 50 409" stroke-linejoin="bevel" stroke-miterlimit="10"/><path fill="none" stroke="black" paint-order="fill stroke markers" d=" M 46 396 L 50 396" stroke-linejoin="bevel" stroke-miterlimit="10"/><path fill="none" stroke="black" paint-order="fill stroke markers" d=" M 46 383 L 50 383" stroke-linejoin="bevel" stroke-miterlimit="10"/><path fill="none" stroke="black" paint-order="fill stroke markers" d=" M 46 369 L 50 369" stroke-linejoin="bevel" stroke-miterlimit="10"/><path fill="none" stroke="black" paint-order="fill stroke markers" d=" M 46 356 L 50 356" stroke-linejoin="bevel" stroke-miterlimit="10"/><path fill="none" stroke="black" paint-order="fill stroke markers" d=" M 46 343 L 50 343" stroke-linejoin="bevel" stroke-miterlimit="10"/><path fill="none" stroke="black" paint-order="fill stroke markers" d=" M 46 330 L 50 330" stroke-linejoin="bevel" stroke-miterlimit="10"/><path fill="none" stroke="black" paint-order="fill stroke markers" d=" M 46 317 L 50 317" stroke-linejoin="bevel" stroke-miterlimit="10"/><path fill="none" stroke="black" paint-order="fill stroke markers" d=" M 46 304 L 50 304" stroke-linejoin="bevel" stroke-miterlimit="10"/><path fill="none" stroke="black" paint-order="fill stroke markers" d=" M 46 291 L 50 291" stroke-linejoin="bevel" stroke-miterlimit="10"/><path fill="none" stroke="black" paint-order="fill stroke markers" d=" M 46 278 L 50 278" stroke-linejoin="bevel" stroke-miterlimit="10"/><path fill="none" stroke="black" paint-order="fill stroke markers" d=" M 46 265 L 50 265" stroke-linejoin="bevel" stroke-miterlimit="10"/><path fill="none" stroke="black" paint-order="fill stroke markers" d=" M 46 252 L 50 252" stroke-linejoin="bevel" stroke-miterlimit="10"/><path fill="none" stroke="black" paint-order="fill stroke markers" d=" M 46 239 L 50 239" stroke-linejoin="bevel" stroke-miterlimit="10"/><path fill="none" stroke="black" paint-order="fill stroke markers" d=" M 46 226 L 50 226" stroke-linejoin="bevel" stroke-miterlimit="10"/><path fill="none" stroke="black" paint-order="fill stroke markers" d=" M 46 213 L 50 213" stroke-linejoin="bevel" stroke-miterlimit="10"/><path fill="none" stroke="black" paint-order="fill stroke markers" d=" M 46 199 L 50 199" stroke-linejoin="bevel" stroke-miterlimit="10"/><path fill="none" stroke="black" paint-order="fill stroke markers" d=" M 46 186 L 50 186" stroke-linejoin="bevel" stroke-miterlimit="10"/><path fill="none" stroke="black" paint-order="fill stroke markers" d=" M 46 173 L 50 173" stroke-linejoin="bevel" stroke-miterlimit="10"/><path fill="none" stroke="black" paint-order="fill stroke markers" d=" M 46 160 L 50 160" stroke-linejoin="bevel" stroke-miterlimit="10"/><path fill="none" stroke="black" paint-order="fill stroke markers" d=" M 46 147 L 50 147" stroke-linejoin="bevel" stroke-miterlimit="10"/><path fill="none" stroke="black" paint-order="fill stroke markers" d=" M 46 134 L 50 134" stroke-linejoin="bevel" stroke-miterlimit="10"/><path fill="none" stroke="black" paint-order="fill stroke markers" d=" M 46 121 L 50 121" stroke-linejoin="bevel" stroke-miterlimit="10"/><path fill="none" stroke="black" paint-order="fill stroke markers" d=" M 46 108 L 50 108" stroke-linejoin="bevel" stroke-miterlimit="10"/><path fill="none" stroke="black" paint-order="fill stroke markers" d=" M 46 95 L 50 95" stroke-linejoin="bevel" stroke-miterlimit="10"/><path fill="none" stroke="black" paint-order="fill stroke markers" d=" M 46 82 L 50 82" stroke-linejoin="bevel" stroke-miterlimit="10"/><path fill="none" stroke="black" paint-order="fill stroke markers" d=" M 46 69 L 50 69" stroke-linejoin="bevel" stroke-miterlimit="10"/><path fill="none" stroke="black" paint-order="fill stroke markers" d=" M 46 56 L 50 56" stroke-linejoin="bevel" stroke-miterlimit="10"/><path fill="" stroke="black" paint-order="fill stroke markers" d=" M 46 42 L 50 42" stroke-linejoin="bevel" stroke-miterlimit="10"/><g transform="translate(39,526) rotate(0,0,0)"><text fill="" stroke="none" font-family="helvetica" font-size="11px" font-style="normal" font-weight="normal" text-decoration="normal" x="0" y="0" text-anchor="end" dominant-baseline="central">0</text><g transform="rotate(0,0,0) translate(-39,-526) translate(39,461)"><text fill="" stroke="none" font-family="helvetica" font-size="11px" font-style="normal" font-weight="normal" text-decoration="normal" x="0" y="0" text-anchor="end" dominant-baseline="central">5</text><g transform="rotate(0,0,0) translate(-39,-461) translate(39,396)"><text fill="" stroke="none" font-family="helvetica" font-size="11px" font-style="normal" font-weight="normal" text-decoration="normal" x="0" y="0" text-anchor="end" dominant-baseline="central">10</text><g transform="rotate(0,0,0) translate(-39,-396) translate(39,330)"><text fill="" stroke="none" font-family="helvetica" font-size="11px" font-style="normal" font-weight="normal" text-decoration="normal" x="0" y="0" text-anchor="end" dominant-baseline="central">15</text><g transform="rotate(0,0,0) translate(-39,-330) translate(39,265)"><text fill="" stroke="none" font-family="helvetica" font-size="11px" font-style="normal" font-weight="normal" text-decoration="normal" x="0" y="0" text-anchor="end" dominant-baseline="central">20</text><g transform="rotate(0,0,0) translate(-39,-265) translate(39,199)"><text fill="" stroke="none" font-family="helvetica" font-size="11px" font-style="normal" font-weight="normal" text-decoration="normal" x="0" y="0" text-anchor="end" dominant-baseline="central">25</text><g transform="rotate(0,0,0) translate(-39,-199) translate(39,134)"><text fill="" stroke="none" font-family="helvetica" font-size="11px" font-style="normal" font-weight="normal" text-decoration="normal" x="0" y="0" text-anchor="end" dominant-baseline="central">30</text><g transform="rotate(0,0,0) translate(-39,-134) translate(39,69)"><text fill="" stroke="none" font-family="helvetica" font-size="11px" font-style="normal" font-weight="normal" text-decoration="normal" x="0" y="0" text-anchor="end" dominant-baseline="central">35</text><g transform="rotate(0,0,0) translate(-39,-69) translate(19,291) rotate(-90,0,0)"><text fill="" stroke="none" font-family="helvetica" font-size="13px" font-style="italic" font-weight="normal" text-decoration="normal" x="0" y="0" text-anchor="middle" dominant-baseline="alphabetic">Number of protocols</text><g transform="rotate(90,0,0) translate(-19,-291)"/></g></g></g></g></g></g></g></g></g></g></g><g><g fill="#444444"><path fill="" stroke="none" d=""/><g transform="translate(50,27)"><path fill="none" stroke="none"/><text fill="" stroke="none" font-family="helvetica" font-size="13px" font-style="normal" font-weight="bold" text-decoration="normal" x="0" y="0" text-anchor="start" dominant-baseline="text-after-edge">Procedure length distribution for the Bio-Protocols dataset</text></g></g></g><g/></g></svg>